REM DIRINDEX 1\2\6,1\2\7,1\2\8,1\3\9,1\3\10,1\3\11,1\4\12,1\4\13,1\4\14,1\5\15,1\5\16,1\5\17,1\5\18
REM DIRNAME folder01,folder02,folder03,folder04,folder05,folder06,folder07,folder08,folder09,folder10,folder11,folder12,folder13,folder14,folder15,folder16,folder17,folder18
TITLE ""
FILE "" MP3
  TRACK 01 AUDIO
    TITLE "16:cjc019_5274"
    INDEX 01 00:00:00
  TRACK 02 AUDIO
    TITLE "0:"
    INDEX 01 00:00:62
  TRACK 03 AUDIO
    TITLE "18:cjc019_5275"
    INDEX 01 00:01:42
  TRACK 04 AUDIO
    TITLE "0:"
    INDEX 01 00:05:18
  TRACK 05 AUDIO
    TITLE "17:cjc019_5276"
    INDEX 01 00:05:73
  TRACK 06 AUDIO
    TITLE "0:"
    INDEX 01 00:06:63
  TRACK 07 AUDIO
    TITLE "16:cjc019_5277"
    INDEX 01 00:08:60
  TRACK 08 AUDIO
    TITLE "0:"
    INDEX 01 00:09:71
  TRACK 09 AUDIO
    TITLE "18:cjc019_5278"
    INDEX 01 00:10:53
  TRACK 10 AUDIO
    TITLE "0:"
    INDEX 01 00:15:30
  TRACK 11 AUDIO
    TITLE "17:cjc019_5279"
    INDEX 01 00:16:12
  TRACK 12 AUDIO
    TITLE "0:"
    INDEX 01 00:17:23
  TRACK 13 AUDIO
    TITLE "16:cjc019_5280"
    INDEX 01 00:19:03
  TRACK 14 AUDIO
    TITLE "0:"
    INDEX 01 00:20:20
  TRACK 15 AUDIO
    TITLE "18:cjc019_5281"
    INDEX 01 00:21:09
  TRACK 16 AUDIO
    TITLE "0:"
    INDEX 01 00:22:32
  TRACK 17 AUDIO
    TITLE "17:cjc019_5282"
    INDEX 01 00:23:08
  TRACK 18 AUDIO
    TITLE "0:"
    INDEX 01 00:24:33
  TRACK 19 AUDIO
    TITLE "16:cjc019_5283"
    INDEX 01 00:26:09
  TRACK 20 AUDIO
    TITLE "0:"
    INDEX 01 00:27:32
  TRACK 21 AUDIO
    TITLE "18:cjc019_5284"
    INDEX 01 00:28:13
  TRACK 22 AUDIO
    TITLE "0:"
    INDEX 01 00:29:05
  TRACK 23 AUDIO
    TITLE "17:cjc019_5285"
    INDEX 01 00:29:64
  TRACK 24 AUDIO
    TITLE "0:"
    INDEX 01 00:31:14
  TRACK 25 AUDIO
    TITLE "16:cjc019_5286"
    INDEX 01 00:32:74
  TRACK 26 AUDIO
    TITLE "0:"
    INDEX 01 00:34:30
  TRACK 27 AUDIO
    TITLE "18:cjc019_5287"
    INDEX 01 00:35:08
  TRACK 28 AUDIO
    TITLE "0:"
    INDEX 01 00:40:28
  TRACK 29 AUDIO
    TITLE "17:cjc019_5288"
    INDEX 01 00:41:08
  TRACK 30 AUDIO
    TITLE "0:"
    INDEX 01 00:42:45
  TRACK 31 AUDIO
    TITLE "16:cjc019_5289"
    INDEX 01 00:44:30
  TRACK 32 AUDIO
    TITLE "0:"
    INDEX 01 00:45:41
  TRACK 33 AUDIO
    TITLE "18:cjc019_5290"
    INDEX 01 00:46:31
  TRACK 34 AUDIO
    TITLE "0:"
    INDEX 01 00:49:53
  TRACK 35 AUDIO
    TITLE "17:cjc019_5291"
    INDEX 01 00:50:37
  TRACK 36 AUDIO
    TITLE "0:"
    INDEX 01 00:51:48
  TRACK 37 AUDIO
    TITLE "16:cjc019_5292"
    INDEX 01 00:53:29
  TRACK 38 AUDIO
    TITLE "0:"
    INDEX 01 00:54:74
  TRACK 39 AUDIO
    TITLE "18:cjc019_5293"
    INDEX 01 00:55:61
  TRACK 40 AUDIO
    TITLE "0:"
    INDEX 01 00:57:45
  TRACK 41 AUDIO
    TITLE "17:cjc019_5294"
    INDEX 01 00:58:22
  TRACK 42 AUDIO
    TITLE "0:"
    INDEX 01 00:59:65
  TRACK 43 AUDIO
    TITLE "16:cjc019_5295"
    INDEX 01 01:01:46
  TRACK 44 AUDIO
    TITLE "0:"
    INDEX 01 01:02:55
  TRACK 45 AUDIO
    TITLE "18:cjc019_5296"
    INDEX 01 01:03:33
  TRACK 46 AUDIO
    TITLE "0:"
    INDEX 01 01:06:47
  TRACK 47 AUDIO
    TITLE "17:cjc019_5297"
    INDEX 01 01:07:25
  TRACK 48 AUDIO
    TITLE "0:"
    INDEX 01 01:08:42
  TRACK 49 AUDIO
    TITLE "16:cjc019_5298"
    INDEX 01 01:10:30
  TRACK 50 AUDIO
    TITLE "0:"
    INDEX 01 01:11:47
  TRACK 51 AUDIO
    TITLE "18:cjc019_5299"
    INDEX 01 01:12:26
  TRACK 52 AUDIO
    TITLE "0:"
    INDEX 01 01:13:38
  TRACK 53 AUDIO
    TITLE "17:cjc019_5300"
    INDEX 01 01:14:14
  TRACK 54 AUDIO
    TITLE "0:"
    INDEX 01 01:15:29
  TRACK 55 AUDIO
    TITLE "16:cjc019_5301"
    INDEX 01 01:17:08
  TRACK 56 AUDIO
    TITLE "0:"
    INDEX 01 01:18:29
  TRACK 57 AUDIO
    TITLE "18:cjc019_5302"
    INDEX 01 01:19:11
  TRACK 58 AUDIO
    TITLE "0:"
    INDEX 01 01:20:14
  TRACK 59 AUDIO
    TITLE "17:cjc019_5303"
    INDEX 01 01:20:67
  TRACK 60 AUDIO
    TITLE "0:"
    INDEX 01 01:22:23
  TRACK 61 AUDIO
    TITLE "16:cjc019_5304"
    INDEX 01 01:24:08
  TRACK 62 AUDIO
    TITLE "0:"
    INDEX 01 01:25:27
  TRACK 63 AUDIO
    TITLE "18:cjc019_5305"
    INDEX 01 01:26:05
  TRACK 64 AUDIO
    TITLE "0:"
    INDEX 01 01:29:56
  TRACK 65 AUDIO
    TITLE "17:cjc019_5306"
    INDEX 01 01:30:34
  TRACK 66 AUDIO
    TITLE "0:"
    INDEX 01 01:31:53
  TRACK 67 AUDIO
    TITLE "16:cjc019_5307"
    INDEX 01 01:33:33
  TRACK 68 AUDIO
    TITLE "0:"
    INDEX 01 01:34:52
  TRACK 69 AUDIO
    TITLE "18:cjc019_5308"
    INDEX 01 01:35:31
  TRACK 70 AUDIO
    TITLE "0:"
    INDEX 01 01:37:50
  TRACK 71 AUDIO
    TITLE "17:cjc019_5309"
    INDEX 01 01:38:24
  TRACK 72 AUDIO
    TITLE "0:"
    INDEX 01 01:39:45
  TRACK 73 AUDIO
    TITLE "16:cjc019_5310"
    INDEX 01 01:41:22
  TRACK 74 AUDIO
    TITLE "0:"
    INDEX 01 01:42:35
  TRACK 75 AUDIO
    TITLE "18:cjc019_5311"
    INDEX 01 01:43:21
  TRACK 76 AUDIO
    TITLE "0:"
    INDEX 01 01:46:47
  TRACK 77 AUDIO
    TITLE "17:cjc019_5312"
    INDEX 01 01:47:29
  TRACK 78 AUDIO
    TITLE "0:"
    INDEX 01 01:48:44
  TRACK 79 AUDIO
    TITLE "16:cjc019_5313"
    INDEX 01 01:50:31
  TRACK 80 AUDIO
    TITLE "0:"
    INDEX 01 01:51:44
  TRACK 81 AUDIO
    TITLE "18:cjc019_5314"
    INDEX 01 01:52:24
  TRACK 82 AUDIO
    TITLE "0:"
    INDEX 01 01:55:50
  TRACK 83 AUDIO
    TITLE "17:cjc019_5315"
    INDEX 01 01:56:32
  TRACK 84 AUDIO
    TITLE "0:"
    INDEX 01 01:57:47
  TRACK 85 AUDIO
    TITLE "16:cjc019_5316"
    INDEX 01 01:59:26
  TRACK 86 AUDIO
    TITLE "0:"
    INDEX 01 02:00:18
  TRACK 87 AUDIO
    TITLE "18:cjc019_5317"
    INDEX 01 02:01:13
  TRACK 88 AUDIO
    TITLE "0:"
    INDEX 01 02:03:63
  TRACK 89 AUDIO
    TITLE "17:cjc019_5318"
    INDEX 01 02:04:43
  TRACK 90 AUDIO
    TITLE "0:"
    INDEX 01 02:05:48
  TRACK 91 AUDIO
    TITLE "16:cjc019_5319"
    INDEX 01 02:07:33
  TRACK 92 AUDIO
    TITLE "0:"
    INDEX 01 02:08:68
  TRACK 93 AUDIO
    TITLE "18:cjc019_5320"
    INDEX 01 02:09:50
  TRACK 94 AUDIO
    TITLE "0:"
    INDEX 01 02:12:29
  TRACK 95 AUDIO
    TITLE "17:cjc019_5321"
    INDEX 01 02:13:07
  TRACK 96 AUDIO
    TITLE "0:"
    INDEX 01 02:14:41
  TRACK 97 AUDIO
    TITLE "16:cjc019_5322"
    INDEX 01 02:16:23
  TRACK 98 AUDIO
    TITLE "0:"
    INDEX 01 02:17:20
  TRACK 99 AUDIO
    TITLE "18:cjc019_5323"
    INDEX 01 02:18:00
  TRACK 100 AUDIO
    TITLE "0:"
    INDEX 01 02:21:65
  TRACK 101 AUDIO
    TITLE "17:cjc019_5324"
    INDEX 01 02:22:49
  TRACK 102 AUDIO
    TITLE "0:"
    INDEX 01 02:23:50
  TRACK 103 AUDIO
    TITLE "16:cjc019_5325"
    INDEX 01 02:25:39
  TRACK 104 AUDIO
    TITLE "0:"
    INDEX 01 02:26:50
  TRACK 105 AUDIO
    TITLE "18:cjc019_5326"
    INDEX 01 02:27:36
  TRACK 106 AUDIO
    TITLE "0:"
    INDEX 01 02:31:08
  TRACK 107 AUDIO
    TITLE "17:cjc019_5327"
    INDEX 01 02:31:63
  TRACK 108 AUDIO
    TITLE "0:"
    INDEX 01 02:33:03
